<svg id="barbecue" xmlns="http://www.w3.org/2000/svg" width="56.189" height="76.051" viewBox="0 0 56.189 76.051">
  <path id="Caminho_516" data-name="Caminho 516" d="M9.726,76.051H7.795c-.193-.045-.371-.119-.564-.149A7.792,7.792,0,0,1,8.983,60.469c.431,0,.654-.074.772-.55,1.56-6.12,3.149-12.254,4.753-18.359.134-.49-.03-.683-.386-.951a29.6,29.6,0,0,1-3.015-2.391,22.817,22.817,0,0,1-7.353-15.27,1.338,1.338,0,0,0-.728-1.218,3.151,3.151,0,0,1-.55-5.11,3.919,3.919,0,0,0,1.56-2.837,5.838,5.838,0,0,1,.282-1A12.24,12.24,0,0,1,15.875,4.456c1.9-.015,3.8,0,5.719,0a5.109,5.109,0,0,1,1.99-3.194A18.022,18.022,0,0,1,26.228,0h6.239A5.894,5.894,0,0,1,37,4.456c1,0,1.99-.03,2.971,0a35.2,35.2,0,0,1,5.021.253,12.049,12.049,0,0,1,9.789,10.308,1.286,1.286,0,0,0,.728,1.069,3.29,3.29,0,0,1-.074,5.734.958.958,0,0,0-.564.906A23.146,23.146,0,0,1,44.588,40.521a.922.922,0,0,0-.46,1.188Q48.36,58,52.564,74.283a1.363,1.363,0,0,1-.639,1.753h-.743a5.237,5.237,0,0,1-.772-1.277c-1.545-5.882-3.06-11.764-4.59-17.646-.505-1.946-1.01-3.907-1.515-5.837-.149-.015-.223-.045-.3-.045q-14.594,0-29.187-.015c-.446,0-.579.163-.683.564-.713,2.822-1.441,5.659-2.2,8.467-.163.579-.074.832.49,1.129A7.775,7.775,0,0,1,13.9,74.06,8.94,8.94,0,0,1,9.726,76.051Zm42.927-53.77H9.845c-1.188,0-1.738-.371-1.723-1.144.03-.743.564-1.084,1.708-1.084h43.3a5,5,0,0,0,.817-.015,1.043,1.043,0,0,0,.951-1.069,1.058,1.058,0,0,0-.965-1.129,2.237,2.237,0,0,0-.446-.015H5.062c-.847,0-1.337.371-1.4,1.025s.356,1.04,1.218,1.2a1.136,1.136,0,0,1,1.01,1.173c.015.564.059,1.144.1,1.708A21.2,21.2,0,0,0,22.8,41.887a38.9,38.9,0,0,0,8.808.416c8.318-.208,14.527-4.025,18.612-11.244A19.954,19.954,0,0,0,52.653,22.281Zm-.074-6.714a9.969,9.969,0,0,0-9.863-8.882c-8.957-.03-17.914-.045-26.87.015a9.647,9.647,0,0,0-8.377,4.649A8.772,8.772,0,0,0,6,15.567ZM14.865,48.973H43.711c-.594-2.3-1.188-4.56-1.782-6.862a19.194,19.194,0,0,1-6.788,2.124c-2.926.238-5.882.282-8.808.3a19.225,19.225,0,0,1-6.4-1.114c-1.084-.371-2.154-.817-3.283-1.233C16.039,44.457,15.459,46.685,14.865,48.973ZM3.175,68.223a5.563,5.563,0,1,0,5.57-5.54A5.569,5.569,0,0,0,3.175,68.223Zm31.4-63.811a3.1,3.1,0,0,0-2.852-2.169c-1.634-.045-3.268-.045-4.887,0A3.031,3.031,0,0,0,24.03,4.412Z" transform="translate(-0.956)" fill="#cb8f55"/>
  <path id="Caminho_517" data-name="Caminho 517" d="M30.9,440.295a3.329,3.329,0,0,1,3.387-3.3,3.342,3.342,0,1,1-3.387,3.3Zm4.441.059a1.113,1.113,0,0,0-1.069-1.114,1.089,1.089,0,0,0-1.144,1.1,1.1,1.1,0,0,0,1.055,1.114A1.139,1.139,0,0,0,35.341,440.354Z" transform="translate(-26.452 -372.087)" fill="#cb8f55"/>
</svg>
