<svg id="deck-chair" xmlns="http://www.w3.org/2000/svg" width="65.303" height="61.958" viewBox="0 0 65.303 61.958">
  <path id="Caminho_518" data-name="Caminho 518" d="M0,35.806c.116-.27.213-.541.328-.792a3.815,3.815,0,0,1,3.342-2.434,3.9,3.9,0,0,1,3.748,1.932c2.55,3.98,5.12,7.96,7.632,11.959A1.5,1.5,0,0,0,16.5,47.3c4.308-.039,8.636-.019,12.945-.019h1.043c-2.26-8.617-4.482-17.1-6.8-25.909-1.681,1.043-3.188,2.009-4.714,2.917a2.5,2.5,0,0,1-1.391.425c-2.975-.328-5.7.039-8.018,2.145-.676.618-1.372.328-1.739-.7A17.6,17.6,0,0,1,9.081,11a17.5,17.5,0,0,1,8.791-7.67c.27-.116.522-.232.792-.348a.9.9,0,0,0,.1-.116c.019-.7-.676-1.739.6-2.029,1.121-.251,1.14.753,1.41,1.526.831-.077,1.642-.174,2.473-.213A17.837,17.837,0,0,1,42,17.258c.174,1.082-.27,1.623-1.294,1.391-2.84-.638-5.274.29-7.535,1.874a3.008,3.008,0,0,1-2.222.522c-1.7-.155-3.439-.039-5.313-.039.657,2.55,1.256,4.869,1.874,7.187C29.1,34.221,30.7,40.249,32.246,46.3a1.155,1.155,0,0,0,1.333,1.063c8.926-.039,17.833.019,26.759-.039,2.454-.019,4.154.831,4.965,3.226v1.546a4.379,4.379,0,0,1-4.946,3.226c-.947-.058-1.893,0-2.975,0,.85,2.029,1.623,3.9,2.4,5.757.27.618.348,1.256-.386,1.565-.773.348-1.179-.155-1.449-.831-.792-1.893-1.6-3.787-2.376-5.7a1.088,1.088,0,0,0-1.2-.811q-17.678.029-35.356,0a1.108,1.108,0,0,0-1.217.792c-.753,1.913-1.584,3.806-2.357,5.7-.27.657-.676,1.179-1.449.85s-.657-.985-.367-1.642c.348-.753.657-1.546.985-2.318.444-1.082.889-2.164,1.391-3.381-.676,0-1.2-.039-1.7,0A4.734,4.734,0,0,1,9.6,52.75c-2.57-4.193-5.274-8.269-7.883-12.4C1.1,39.38.58,38.356,0,37.351ZM37.385,53.271H61.033a2,2,0,1,0,.039-3.961h-.966q-22.112,0-44.224.019a2.2,2.2,0,0,1-2.106-1.159c-2.55-4.057-5.159-8.1-7.728-12.114a5.721,5.721,0,0,0-.541-.792,1.9,1.9,0,0,0-2.106-.6,1.745,1.745,0,0,0-1.352,1.7,3.353,3.353,0,0,0,.56,1.681c2.9,4.6,5.873,9.158,8.752,13.756a2.838,2.838,0,0,0,2.763,1.488C21.871,53.252,29.637,53.271,37.385,53.271Zm2.376-36.786C38.332,9.163,31.164,4.043,25,4.2c4.115,3.9,6.086,8.907,7.593,14.258A11.936,11.936,0,0,1,39.761,16.485ZM16.21,6.439c-6.7,3.961-8.849,12.6-6.723,17.987a11.889,11.889,0,0,1,7.168-1.8C15.244,17.219,14.645,11.926,16.21,6.439ZM30.545,18.8a34.1,34.1,0,0,0-2.917-7.786,16.351,16.351,0,0,0-4.212-5.448A12.888,12.888,0,0,0,21.6,4.545c-.058.077-.135.155-.193.232,1.256,4.791,2.512,9.583,3.748,14.3C26.971,18.978,28.691,18.9,30.545,18.8Zm-7.322.792c-1.256-4.753-2.492-9.506-3.748-14.278-.1-.039-.213-.058-.309-.1a15.876,15.876,0,0,0-1.179,2.628c-1.2,4.753-.618,9.448.618,14.1C20.132,21.18,21.619,20.427,23.223,19.6Z" transform="translate(0 -0.797)" fill="#cb8f55"/>
</svg>
