<svg id="fingerprint" xmlns="http://www.w3.org/2000/svg" width="55.993" height="78.31" viewBox="0 0 55.993 78.31">
  <path id="Caminho_521" data-name="Caminho 521" d="M35.369,146.368c-.437,7.891-2.377,14.57-6.889,20.342a30.541,30.541,0,0,1-15.588,10.462c-2.943.906-6.015,1.391-9.039,2.005-.873.178-1.423-.226-1.5-.922-.081-.647.34-1.132,1.18-1.245a45.655,45.655,0,0,0,11.319-2.878c10.349-4.3,16.2-12.1,17.852-23.108.226-1.52.323-3.056.42-4.576a2.872,2.872,0,1,0-5.708-.178A22.613,22.613,0,0,1,24.6,157.429c-.113.21-.226.437-.356.631a1.112,1.112,0,1,1-1.924-1.116c.614-1.342,1.294-2.668,1.795-4.043a20.357,20.357,0,0,0,1.067-6.824,5,5,0,0,1,3.331-4.786,5.109,5.109,0,0,1,5.546,1.374A4.783,4.783,0,0,1,35.369,146.368Z" transform="translate(-2.137 -118.327)" fill="#cb8f55"/>
  <path id="Caminho_522" data-name="Caminho 522" d="M29.2,45.6A20.281,20.281,0,0,1,47.89,58.229a3.8,3.8,0,0,1,.243.679,1.037,1.037,0,0,1-.712,1.342,1.024,1.024,0,0,1-1.342-.582,7.36,7.36,0,0,1-.34-.825A17.966,17.966,0,0,0,11.49,62.676c-.226,1.294-.243,2.62-.34,3.946A8.968,8.968,0,0,1,2.693,74.8c-1.051.032-1.569-.291-1.6-1.035-.032-.728.453-1.1,1.5-1.2a6.666,6.666,0,0,0,6.193-5.336c.243-1.342.21-2.733.372-4.091A20.162,20.162,0,0,1,26.625,45.81C27.466,45.713,28.339,45.665,29.2,45.6Z" transform="translate(-1.091 -38.37)" fill="#cb8f55"/>
  <path id="Caminho_523" data-name="Caminho 523" d="M181.811,115.046c0,3.266-.081,6.517.016,9.783a13,13,0,0,0,6.646,11.222A8.966,8.966,0,0,0,193.5,137.3a1.122,1.122,0,1,1,.1,2.232,5.467,5.467,0,0,1-.728,0,12.065,12.065,0,0,1-7.584-3.008,15.263,15.263,0,0,1-5.708-12c-.049-6.5,0-12.985-.016-19.485a10.335,10.335,0,0,0-8.344-10.22,13.981,13.981,0,0,0-1.843-.21c-.825-.065-1.294-.485-1.277-1.148a1.143,1.143,0,0,1,1.342-1.067A12.34,12.34,0,0,1,177.9,95.9a12.508,12.508,0,0,1,3.9,9.266c.016,3.3,0,6.581.016,9.88Z" transform="translate(-141.092 -77.594)" fill="#cb8f55"/>
  <path id="Caminho_524" data-name="Caminho 524" d="M63.922,316.756a33.865,33.865,0,0,1-7.358,7.083,48.692,48.692,0,0,1-17.125,7.471c-.809.194-1.391-.113-1.552-.76-.178-.7.226-1.245,1.132-1.455a47.02,47.02,0,0,0,12.613-4.835,31.544,31.544,0,0,0,11.691-10.673,1.376,1.376,0,0,1,1.116-.534,1.529,1.529,0,0,1,.938.906,25.249,25.249,0,0,0,3.46,7.341,25.945,25.945,0,0,0,10.947,8.91,3.573,3.573,0,0,1,.437.194,1.109,1.109,0,1,1-.873,2.037,26.365,26.365,0,0,1-6.306-3.557,27.037,27.037,0,0,1-8.845-11.53C64.148,317.225,64.067,317.063,63.922,316.756Z" transform="translate(-31.903 -262.567)" fill="#cb8f55"/>
  <path id="Caminho_525" data-name="Caminho 525" d="M30.335.891a27.259,27.259,0,0,1,8.958,1.488c.792.275,1.1.809.889,1.472-.194.631-.792.873-1.585.663-.1-.032-.21-.049-.307-.081a23.68,23.68,0,0,0-9.072-1.245A25.1,25.1,0,0,0,8.068,15.978,24.915,24.915,0,0,0,4.624,28.2c0,.162,0,.323-.016.485a1.075,1.075,0,0,1-1.083,1.164,1.065,1.065,0,0,1-1.132-1.2A27.952,27.952,0,0,1,2.7,24.63C4.689,13.682,10.882,6.2,21.377,2.347A25.156,25.156,0,0,1,30.335.891Z" transform="translate(-2.181 -0.89)" fill="#cb8f55"/>
  <path id="Caminho_526" data-name="Caminho 526" d="M270.6,59.139c0-2.62.049-5.223-.016-7.843a25.324,25.324,0,0,0-11.125-21.005,5.37,5.37,0,0,1-.582-.42,1.05,1.05,0,0,1-.146-1.407,1.017,1.017,0,0,1,1.342-.4,2.4,2.4,0,0,1,.614.372c7.794,5.546,11.9,13.114,12.128,22.671.146,5.789.032,11.594.032,17.383,0,.954-.4,1.488-1.1,1.488-.728.016-1.148-.534-1.148-1.536Z" transform="translate(-216.899 -23.579)" fill="#cb8f55"/>
  <path id="Caminho_527" data-name="Caminho 527" d="M4.158,134.59c-1.294.016-1.876-.34-1.86-1.132.016-.76.534-1.083,1.811-1.116a13.934,13.934,0,0,0,13.147-11.416c.34-1.73.291-3.541.517-5.288a12.169,12.169,0,0,1,4.609-8.15,1.123,1.123,0,0,1,1.666-.032c.566.534.437,1.213-.34,1.843a9.835,9.835,0,0,0-3.638,6.112c-.259,1.536-.21,3.1-.372,4.657C18.857,128.009,11.92,134.477,4.158,134.59Z" transform="translate(-2.103 -89.925)" fill="#cb8f55"/>
  <path id="Caminho_528" data-name="Caminho 528" d="M105.5,405.151c-4.123,4.22-9.4,6.112-14.861,7.665a1.149,1.149,0,0,1-1.536-.792c-.162-.631.21-1.18,1.019-1.391a40.353,40.353,0,0,0,9.233-3.59,14.227,14.227,0,0,0,5.223-4.479c.517-.792,1.407-.712,1.973.162a21.35,21.35,0,0,0,7.164,6.646c.776.469,1.6.873,2.409,1.294a1.181,1.181,0,0,1,.7,1.585,1.15,1.15,0,0,1-1.666.437,26.654,26.654,0,0,1-9.088-6.856C105.893,405.6,105.7,405.378,105.5,405.151Z" transform="translate(-74.844 -337.153)" fill="#cb8f55"/>
  <path id="Caminho_529" data-name="Caminho 529" d="M285.9,173.133v-7.681c0-1.067.356-1.552,1.1-1.552s1.132.517,1.148,1.536v14.473c0,4.592,2.264,7.681,6.63,9.1.76.243,1.148.809.97,1.423-.194.663-.809.938-1.633.712a11.05,11.05,0,0,1-8.2-10.414c-.032-2.523,0-5.061-.016-7.6Z" transform="translate(-239.845 -137.54)" fill="#cb8f55"/>
  <path id="Caminho_530" data-name="Caminho 530" d="M4.225,273.341c-.129,0-.42.016-.728,0a1.093,1.093,0,0,1-.081-2.183c1.6-.194,3.218-.307,4.8-.631a17.977,17.977,0,0,0,8.716-3.994,19.432,19.432,0,0,0,2.312-2.684c.566-.712,1.1-.938,1.7-.566.582.372.663,1.035.194,1.779a16.768,16.768,0,0,1-9.233,6.808A29.668,29.668,0,0,1,4.225,273.341Z" transform="translate(-2.186 -220.704)" fill="#cb8f55"/>
  <path id="Caminho_531" data-name="Caminho 531" d="M171.044,460.63a5.129,5.129,0,0,1-.809.97c-.857.647-1.746,1.229-2.652,1.827a1.125,1.125,0,1,1-1.31-1.811c.922-.647,1.827-1.326,2.8-1.892a1.568,1.568,0,0,1,1.18-.065C170.575,459.806,170.753,460.242,171.044,460.63Z" transform="translate(-139.073 -385.404)" fill="#cb8f55"/>
</svg>
