<svg id="gym" xmlns="http://www.w3.org/2000/svg" width="65.707" height="42.4" viewBox="0 0 65.707 42.4">
  <path id="Caminho_532" data-name="Caminho 532" d="M15.589,42.4H14.264c-.146-.053-.278-.106-.424-.146a4.191,4.191,0,0,1-3.021-3.127c-.04-.146-.093-.278-.133-.424a4.37,4.37,0,0,1-6.373-4.386c.159-2.7.027-5.433.027-8.149v-.716a4.294,4.294,0,0,1-3.7-2.213A13.34,13.34,0,0,1,.1,21.982v-1.59a4.384,4.384,0,0,1,1.815-2.65A21.912,21.912,0,0,1,4.34,16.735v-.583c0-2.889-.013-5.79,0-8.679a4.132,4.132,0,0,1,3.67-4.24,11.729,11.729,0,0,1,2.637.278,17.2,17.2,0,0,1,.888-1.789A4.524,4.524,0,0,1,14.264,0h1.325c2.836,1.034,3.578,2.12,3.578,5.181V16.907h27.56v-.769c0-3.949-.013-7.9,0-11.846A4.222,4.222,0,0,1,49.761.172c.146-.053.278-.119.411-.172h1.59A4.637,4.637,0,0,1,54.73,2.319c.2.437.331.9.5,1.338a.434.434,0,0,0,.132,0A4.283,4.283,0,0,1,61.58,7.791c-.08,2.8-.013,5.6-.013,8.414v.729A4.115,4.115,0,0,1,64.88,18.59a11.967,11.967,0,0,1,.928,1.948v1.325c-.053.159-.106.331-.159.49a4.177,4.177,0,0,1-3.3,2.995c-.252.053-.5.093-.782.132v.755c0,2.915.026,5.83-.013,8.732a4.211,4.211,0,0,1-5.313,4.081,9.023,9.023,0,0,1-.928-.331,18.791,18.791,0,0,1-.954,1.935,4.429,4.429,0,0,1-2.73,1.723H50.172c-.027-.027-.053-.08-.093-.093-2.412-.808-3.352-2.12-3.352-4.664V25.453H19.167v.755c0,3.949.013,7.9,0,11.846a4.194,4.194,0,0,1-3.273,4.187A1.679,1.679,0,0,1,15.589,42.4ZM12.807,21.134V37.7a5.529,5.529,0,0,0,.013.663,2.156,2.156,0,0,0,1.895,1.921,2.076,2.076,0,0,0,2.2-1.431,3.884,3.884,0,0,0,.133-1.113V4.677a4.48,4.48,0,0,0-.013-.6,2.084,2.084,0,0,0-1.352-1.815,2.112,2.112,0,0,0-2.875,2.107Zm36.04.027v7.354c0,3.207-.013,6.4,0,9.606a2.119,2.119,0,0,0,4.187.5,4.264,4.264,0,0,0,.053-.928V4.7a5.474,5.474,0,0,0-.013-.663,2.121,2.121,0,0,0-4.227.358Zm10.6.04V7.486a2.121,2.121,0,1,0-4.24-.027q-.02,13.754.013,27.494a2.516,2.516,0,0,0,.424,1.285,2,2,0,0,0,2.345.755,2.115,2.115,0,0,0,1.458-2.133C59.447,30.29,59.447,25.745,59.447,21.2Zm-48.76-.013V7.606a2.163,2.163,0,0,0-1.338-2.16,2.132,2.132,0,0,0-2.9,2.147V34.821a2.144,2.144,0,0,0,1.02,1.961,1.937,1.937,0,0,0,2.08.066A2.11,2.11,0,0,0,10.7,34.834C10.687,30.29,10.687,25.732,10.687,21.187ZM46.7,19.12H19.22V23.28H46.7ZM4.287,23.294V19.12a2.087,2.087,0,0,0,0,4.174Zm57.32-4.187V23.28a2.087,2.087,0,0,0,0-4.174Z" transform="translate(-0.1)" fill="#cb8f55"/>
</svg>
