<svg id="sauna" xmlns="http://www.w3.org/2000/svg" width="69.767" height="63.789" viewBox="0 0 69.767 63.789">
  <path id="Caminho_535" data-name="Caminho 535" d="M-.086,153.156a2.881,2.881,0,0,1,3.078-1.811c3.268.068,6.537.027,9.805.027h.763a7.367,7.367,0,0,1,.163-.912,3.063,3.063,0,0,1,2.955-2.288c2.628-.041,5.27-.054,7.9,0,1.73.041,2.683,1.035,3.119,3.2H41.463a5.625,5.625,0,0,1,.681.014.918.918,0,0,1,.844.831.9.9,0,0,1-.613,1.076,2.643,2.643,0,0,1-.872.109H27.654v8.457H66.643c.953,0,.953,0,.967-.926v-6.6c0-.926,0-.926-.953-.926H47.047a3.708,3.708,0,0,1-.872-.068.917.917,0,0,1-.722-1.021.954.954,0,0,1,.912-.94,5.683,5.683,0,0,1,.681-.014c6.51,0,13.033.027,19.542-.027a2.907,2.907,0,0,1,3.078,1.811v8.852a2.692,2.692,0,0,1-3,1.907c-.967-.054-1.934-.014-2.942-.014v11.943a3.459,3.459,0,0,1-.041.749,1,1,0,0,1-1.947.082,3.207,3.207,0,0,1-.068-.8V163.942H54.687v6.019q0,5.515.014,11.031a.913.913,0,0,0,.259.681,4.658,4.658,0,0,1,2.479,4.7c-.054,1.13-.014,2.261-.014,3.445h1.362c1.988,0,2.873-.872,2.873-2.846v-5.924c.027-.749.409-1.2,1.021-1.2s1.008.436,1.008,1.185c.014,2,.014,3.99,0,5.992-.014,3.023-1.811,4.835-4.835,4.835H10.645a6.362,6.362,0,0,1-1.348-.109,4.444,4.444,0,0,1-3.459-4.671V163.9c-1.035,0-1.988-.041-2.942.014a2.692,2.692,0,0,1-3-1.907Q-.08,157.576-.086,153.156Zm13.714,8.7c0-.735-.027-1.4.014-2.084a.9.9,0,0,1,.967-.926.941.941,0,0,1,1.021.885,3.749,3.749,0,0,1,.027.681c0,2.492.014,5-.014,7.49,0,.6.2.776.79.776q4.188-.041,8.375,0c.613,0,.763-.232.763-.8q-.02-8.13-.014-16.274c0-1.089-.327-1.43-1.416-1.43H17.059c-1.089,0-1.4.34-1.4,1.444v3.4c0,.912-.381,1.389-1.049,1.375-.64-.014-.994-.477-.994-1.348v-1.593a2.987,2.987,0,0,0-.3-.054q-5.372,0-10.758-.014c-.558,0-.613.286-.613.735.014,2.288,0,4.589,0,6.877,0,.844.014.858.9.858H13.627Zm13.986,2.084v4.29a2.248,2.248,0,0,1-.858,1.907,1,1,0,0,0-.409.926c.014,6.019,0,12.025.014,18.044,0,.218.014.436.027.667h7.327V163.942Zm-14,0H7.894v23.015a5.476,5.476,0,0,0,.041.817A2.217,2.217,0,0,0,9.8,189.762c1.661.1,3.336.027,5.025.027.014-.123.041-.2.041-.286q0-9.315-.014-18.643a.773.773,0,0,0-.259-.558,2.617,2.617,0,0,1-1.008-2.261C13.627,166.679,13.614,165.345,13.614,163.942Zm22.239-.014v25.834h4.617c0-1.416-.014-2.765,0-4.126a4.236,4.236,0,0,1,2.233-3.8.861.861,0,0,0,.5-.9q-.02-8.171-.014-16.342c0-.218-.014-.436-.027-.681C40.714,163.928,38.317,163.928,35.852,163.928ZM24.25,189.79V170.765H16.964V189.79Zm21.04-25.861v17.254h7.286V163.928ZM55.367,189.79c0-1.444.027-2.805,0-4.167a2.325,2.325,0,0,0-2.342-2.342q-4.085-.041-8.157,0a2.252,2.252,0,0,0-2.274,1.879c-.109,1.525-.027,3.064-.027,4.6h2.7c.014-.109.041-.15.041-.191,0-.817,0-1.634.014-2.451,0-1.1.327-1.58,1.049-1.566s.994.449.994,1.539v2.683h3.214c0-1.089-.014-2.124,0-3.159a1,1,0,0,1,1.389-.994,1.115,1.115,0,0,1,.654,1.171v3.01C53.543,189.79,54.414,189.79,55.367,189.79Z" transform="translate(0.1 -128.07)" fill="#cb8f55"/>
  <path id="Caminho_536" data-name="Caminho 536" d="M246.066,2.1a15.739,15.739,0,0,1-1.13,2.642,3.624,3.624,0,0,0,.014,4.521,4.985,4.985,0,0,1,0,5.924,4.3,4.3,0,0,0-.858,2.315.949.949,0,0,1-1.049.926.993.993,0,0,1-.953-1.035,5.355,5.355,0,0,1,.872-2.887,6.981,6.981,0,0,0,.858-1.893,2.674,2.674,0,0,0-.5-2.193,5.435,5.435,0,0,1-.014-6.864,4.136,4.136,0,0,0,.545-1.648c.123-.735.463-1.144,1.1-1.117s.967.477.953,1.239C245.943,2.058,246.011,2.072,246.066,2.1Z" transform="translate(-209.106 -0.791)" fill="#cb8f55"/>
  <path id="Caminho_537" data-name="Caminho 537" d="M176.6,26.124A14.227,14.227,0,0,1,177.553,24a2.556,2.556,0,0,0-.014-3.146,4.271,4.271,0,0,1,0-5.025,5.138,5.138,0,0,0,.572-1.566c.15-.626.517-1.021,1.089-.981a.962.962,0,0,1,.926,1.117,7.651,7.651,0,0,1-.776,2.342,2.676,2.676,0,0,0,.014,3.214,4.231,4.231,0,0,1,0,4.971,4.108,4.108,0,0,0-.558,1.416c-.163.763-.558,1.226-1.158,1.144C177.049,27.431,176.723,26.954,176.6,26.124Z" transform="translate(-152.536 -11.578)" fill="#cb8f55"/>
  <path id="Caminho_538" data-name="Caminho 538" d="M312.867,14.545a15.072,15.072,0,0,1-.967,2.193,2.514,2.514,0,0,0,.014,3.078,4.271,4.271,0,0,1,.041,5.025,5.513,5.513,0,0,0-.6,1.621c-.15.572-.531.981-1.049.953a.971.971,0,0,1-.953-1.1,6.434,6.434,0,0,1,.722-2.288,2.779,2.779,0,0,0-.014-3.391,4.178,4.178,0,0,1-.014-4.794,4.989,4.989,0,0,0,.613-1.539c.163-.735.517-1.158,1.117-1.117s.953.517.926,1.267A.511.511,0,0,0,312.867,14.545Z" transform="translate(-267.164 -11.493)" fill="#cb8f55"/>
</svg>
