<svg id="security-guard" xmlns="http://www.w3.org/2000/svg" width="63.837" height="72.582" viewBox="0 0 63.837 72.582">
  <path id="Caminho_539" data-name="Caminho 539" d="M11.458,72.739c0-4.72.014-9.439,0-14.159a1.413,1.413,0,0,0-.241-.836q-3.976-5.166-7.965-10.3a.331.331,0,0,0-.283-.17V61.925H.857C.843,61.7.814,61.457.814,61.2c0-5.783.014-11.565-.014-17.348a.829.829,0,0,1,.68-.935c6.633-2.225,13.252-4.493,19.885-6.718a.939.939,0,0,0,.78-1.091c-.057-1.29,0-2.594-.028-3.9a1.3,1.3,0,0,0-.369-.907c-1.63-1.176-1.913-2.75-1.885-4.677.113-6.236.057-12.458.028-18.695a1.834,1.834,0,0,1,.6-1.417C22.117,3.942,23.7,2.326,25.306.724c.17-.17.3-.354.454-.524H49.712c0,1.063.028,2.126-.014,3.189a1.252,1.252,0,0,1-.439.85C48.2,5.09,47.09,5.912,45.97,6.706a1.13,1.13,0,0,0-.524,1.049c.014,6.066-.057,12.147.057,18.213.028,1.743-.312,3.1-1.757,4.139a1.311,1.311,0,0,0-.4.964c-.043,1.389.014,2.792-.028,4.181a.809.809,0,0,0,.68.935c6.661,2.239,13.309,4.507,19.97,6.746a.806.806,0,0,1,.666.935Q64.615,54.54,64.623,65.2c0,2.523-.014,5.06-.014,7.583H62.482c0-.113.014-.241.014-.354V47.17c-.227.255-.34.369-.425.482-2.594,3.359-5.2,6.7-7.781,10.077a1.639,1.639,0,0,0-.283.964c-.014,4.691-.014,9.4-.014,14.088H51.867c0-4.932-.014-9.879.014-14.811a1.83,1.83,0,0,1,.369-1.077C55.3,52.925,58.372,48.97,61.434,45c.128-.156.227-.326.383-.553-1.9-.638-3.713-1.261-5.556-1.857a.766.766,0,0,0-.624.255c-.964,1.106-1.928,2.211-2.82,3.359a.862.862,0,0,1-1.191.3c-1.8-.709-3.614-1.361-5.428-2.027-1.587-.581-3.161-1.176-4.8-1.786,1.191-1.361,2.31-2.65,3.472-3.983-.68-.227-1.233-.411-1.786-.624a.669.669,0,0,0-.85.213c-.921,1.02-1.857,2.013-2.806,3l-.865.907c-.454-.482-.836-.893-1.261-1.346-.312.694-.539,1.332-.865,1.942a3.974,3.974,0,0,0-.354,2.523c.3,2.1.51,4.224.751,6.321.652,5.513,1.318,11.013,1.928,16.526.17,1.517.142,3.047.213,4.578H36.843a3.81,3.81,0,0,0,.043-.694c-.142-1.814-.255-3.614-.468-5.414q-1.063-9.376-2.183-18.765c-.113-.978-.241-1.942-.369-2.962h-.709C31.457,44.9,31.5,44.9,31.3,46.6c-.524,4.635-1.106,9.269-1.616,13.9-.439,4.082-.808,8.164-1.219,12.232H26.34a22.716,22.716,0,0,1,.043-2.409c.51-4.55,1.063-9.1,1.6-13.635.482-4.124.978-8.249,1.46-12.373a1.1,1.1,0,0,0-.043-.482c-.411-.964-.836-1.928-1.29-2.976-.439.482-.822.893-1.233,1.346-1.219-1.332-2.4-2.622-3.586-3.9-.142-.156-.4-.383-.539-.34-.709.2-1.4.468-2.2.737,1.176,1.361,2.3,2.636,3.4,3.912a1.089,1.089,0,0,1-.184.128c-3.444,1.276-6.888,2.565-10.347,3.827a.792.792,0,0,1-.68-.227c-.992-1.134-1.942-2.31-2.948-3.444-.156-.17-.5-.354-.666-.3-1.814.581-3.614,1.2-5.471,1.843.17.227.3.425.439.6,3.047,3.94,6.095,7.866,9.142,11.821a1.665,1.665,0,0,1,.354.95c0,4.961-.014,9.95-.014,14.924Zm10.63-59.726a2.678,2.678,0,0,0-.043.411c0,4.55-.014,9.113.014,13.663a1.3,1.3,0,0,0,.369.78c1.247,1.318,2.509,2.622,3.813,3.9a1.554,1.554,0,0,0,.907.4q5.421.043,10.828,0a1.454,1.454,0,0,0,.907-.383c1.361-1.276,2.707-2.58,4.011-3.9a1.645,1.645,0,0,0,.425-1.02c.028-4.365.014-8.731.014-13.1v-.694a3.169,3.169,0,0,0-.581-.043,3.234,3.234,0,0,1-3.458-1.474c-.624-.879-1.474-.68-2.409-.581v2.069C31.925,13.013,27.021,13.013,22.088,13.013ZM43.348,10.8c0-1.46-.028-2.877.014-4.28a1.225,1.225,0,0,1,.4-.794C44.893,4.835,46.07,4,47.2,3.12a3.44,3.44,0,0,0,.5-.751c-.269-.028-.34-.043-.411-.043q-10.056,0-20.112.014a1.221,1.221,0,0,0-.794.34c-1.361,1.318-2.693,2.65-4.025,4-.128.128-.3.3-.312.454-.028,1.247-.014,2.48-.014,3.742H34.8v-2.1a27.109,27.109,0,0,0,2.849-.014,3.085,3.085,0,0,1,3.161,1.332A2.257,2.257,0,0,0,43.348,10.8ZM32.7,35.8a18.007,18.007,0,0,1-1.843,1.984,1.968,1.968,0,0,0-.51,2.948c.4.624.51,1.6,1.035,1.928.553.34,1.46.128,2.211.085a.9.9,0,0,0,.666-.425c.454-.935.85-1.885,1.247-2.849a.7.7,0,0,0-.057-.609C34.589,37.844,33.668,36.866,32.7,35.8Zm12.3,5.924c2.169.808,4.252,1.587,6.35,2.353A.525.525,0,0,0,51.8,44c.652-.737,1.261-1.488,1.956-2.31C51.526,40.934,49.415,40.2,47.3,39.5a.5.5,0,0,0-.425.1C46.268,40.282,45.673,40.977,45.007,41.728Zm-33.378-.014c.624.737,1.176,1.375,1.7,2.041a.691.691,0,0,0,.964.227c1.828-.694,3.657-1.361,5.5-2.041a5.747,5.747,0,0,0,.524-.255c-.609-.709-1.176-1.375-1.757-2.013a.58.58,0,0,0-.468-.142C15.965,40.24,13.854,40.962,11.628,41.714Zm26.929-2.665c.865-.921,1.687-1.786,2.495-2.665.057-.071.142-.156.142-.241.014-1.162,0-2.31,0-3.472-.071-.043-.156-.085-.227-.128-.269.326-.553.652-.808.978a2.016,2.016,0,0,1-1.9.794c-1.276-.071-2.565-.014-4.025-.014C35.751,35.973,37.126,37.49,38.558,39.049Zm-14.3-6.095c0,1.077-.014,2.041.014,3a.676.676,0,0,0,.17.439c.78.879,1.587,1.729,2.424,2.636,1.432-1.559,2.82-3.09,4.309-4.734-1.3,0-2.438-.071-3.558.014a2.921,2.921,0,0,1-3.061-1.2A2.066,2.066,0,0,1,24.257,32.955Z" transform="translate(-0.8 -0.2)" fill="#cb8f55"/>
  <path id="Caminho_540" data-name="Caminho 540" d="M1,485.651V481.3H3.126v4.351Z" transform="translate(-0.972 -413.112)" fill="#cb8f55"/>
  <path id="Caminho_541" data-name="Caminho 541" d="M34.781,107.483h2.1v2.1H34.838v2.112H32.7v-2.055H30.6v-2.126h2.041V105.4h2.126C34.781,106.052,34.781,106.718,34.781,107.483Z" transform="translate(-26.376 -90.49)" fill="#cb8f55"/>
  <path id="Caminho_542" data-name="Caminho 542" d="M1.2,180.4H3.213v2.069H1.2Z" transform="translate(-1.143 -154.86)" fill="#cb8f55"/>
  <path id="Caminho_543" data-name="Caminho 543" d="M1.1,453.341V451.3H3.155v2.041Z" transform="translate(-1.057 -387.364)" fill="#cb8f55"/>
  <path id="Caminho_544" data-name="Caminho 544" d="M376.9,107.469h2.083V105.4h2.126v2.069h2.112V109.6h-2.083v2.1H379v-2.055h-2.1Z" transform="translate(-323.594 -90.49)" fill="#cb8f55"/>
  <path id="Caminho_545" data-name="Caminho 545" d="M436.5,180.4h2.013v2.069H436.5Z" transform="translate(-374.747 -154.86)" fill="#cb8f55"/>
</svg>
