<svg id="swimming-pool" xmlns="http://www.w3.org/2000/svg" width="68.445" height="70.582" viewBox="0 0 68.445 70.582">
  <path id="Caminho_546" data-name="Caminho 546" d="M46.1,44.351c.422-.408.713-.655.975-.932a6.554,6.554,0,0,1,10.088-.044,4.528,4.528,0,0,0,7.06.015,6.685,6.685,0,0,1,4.964-2.329v1.951a3.524,3.524,0,0,0-1,.2,9.156,9.156,0,0,0-2.373,1.47c-3.1,3.217-7.264,3.232-10.262-.058a4.557,4.557,0,0,0-6.914.073,6.556,6.556,0,0,1-8.85,1.179,9.673,9.673,0,0,1-1.339-1.223,4.572,4.572,0,0,0-6.929,0c-2.373,2.562-5.546,3.173-8.341,1.543a8.009,8.009,0,0,1-1.834-1.528,4.569,4.569,0,0,0-6.973.015A6.528,6.528,0,0,1,4.25,44.7,5.06,5.06,0,0,0,.8,43.041V41.076a6.371,6.371,0,0,1,4.542,1.878c.378.364.728.786,1.15,1.121a4.5,4.5,0,0,0,6.187-.509,7.009,7.009,0,0,1,3.552-2.285,6.432,6.432,0,0,1,6.4,1.834c.378.378.757.771,1.15,1.15.058-.029.1-.058.16-.087V6.053A5.038,5.038,0,0,1,33.989,5.3c.015.146,0,.277,0,.466H32.053c-.073-.291-.116-.582-.2-.844a2.979,2.979,0,0,0-3.333-2.082,2.939,2.939,0,0,0-2.533,2.839c-.029.67,0,1.354,0,2.082H44.091c0-.655-.029-1.325,0-1.98a4.9,4.9,0,0,1,2.984-4.542,4.776,4.776,0,0,1,5.255.7,4.768,4.768,0,0,1,1.805,3.857A13.668,13.668,0,0,1,52.4,5.761c-.146-.015-.277-.393-.335-.611a3,3,0,0,0-2.649-2.329,2.925,2.925,0,0,0-3.1,1.921A4.777,4.777,0,0,0,46.1,6.315q-.022,18.56-.015,37.134C46.1,43.638,46.1,43.885,46.1,44.351ZM26.027,19.91V27.9H44.048V19.91ZM44.062,30H26.041v7.977H44.062ZM26.027,17.814H44.048V9.837H26.027C26.027,12.5,26.027,15.136,26.027,17.814ZM44.048,40.1H26.012v4.906c.131.015.233.044.32.044A4.553,4.553,0,0,0,29.986,43.4a6.47,6.47,0,0,1,6.842-2.1,6.831,6.831,0,0,1,3.348,2.213,4.364,4.364,0,0,0,3.887,1.5C44.048,43.332,44.048,41.745,44.048,40.1Z" transform="translate(-0.8 -0.746)" fill="#cb8f55"/>
  <path id="Caminho_547" data-name="Caminho 547" d="M1,445.619v-1.965A6.327,6.327,0,0,1,5.425,445.4c.233.2.437.451.655.684a4.529,4.529,0,0,0,6.871-.029,6.76,6.76,0,0,1,4.585-2.4,6.478,6.478,0,0,1,5.619,2.358,4.279,4.279,0,0,0,4.789,1.4,5.235,5.235,0,0,0,2.1-1.339c3.086-3.261,7.191-3.29,10.248-.015a4.549,4.549,0,0,0,6.973-.044,6.554,6.554,0,0,1,10.088-.044,4.537,4.537,0,0,0,7.06.029,6.873,6.873,0,0,1,3.887-2.242c.349-.058.713-.073,1.106-.1v1.994c-1.732.044-2.868,1.063-4.032,2.213a6.478,6.478,0,0,1-9.505-.524,4.564,4.564,0,0,0-4.221-1.6,4.844,4.844,0,0,0-2.955,1.7A6.521,6.521,0,0,1,40,448.5a3.941,3.941,0,0,1-.975-.859,4.823,4.823,0,0,0-7.715,0,6.277,6.277,0,0,1-8.516.786,10.591,10.591,0,0,1-1.325-1.237,4.555,4.555,0,0,0-6.827.044c-3.042,3.319-7.205,3.319-10.277,0A4.65,4.65,0,0,0,1,445.619Z" transform="translate(-0.971 -379.146)" fill="#cb8f55"/>
  <path id="Caminho_548" data-name="Caminho 548" d="M1,334.738v-1.994a6.545,6.545,0,0,1,4.935,2.3A4.706,4.706,0,0,0,8.7,336.659a4.607,4.607,0,0,0,4.367-1.6,6.477,6.477,0,0,1,8.05-1.558,8.659,8.659,0,0,1,2.023,1.63,4.569,4.569,0,0,0,6.973,0c3-3.232,7.176-3.232,10.175.015a4.549,4.549,0,0,0,6.973-.044,6.543,6.543,0,0,1,10.131,0,4.547,4.547,0,0,0,7.016-.015,6.806,6.806,0,0,1,5.007-2.358v2.009c-1.761.015-2.911,1.121-4.1,2.271a6.477,6.477,0,0,1-8.952-.087,5.584,5.584,0,0,1-.408-.422c-2.242-2.387-5.007-2.373-7.264.044A6.446,6.446,0,0,1,43,338.7a6.612,6.612,0,0,1-4.352-2.387,4.26,4.26,0,0,0-4.673-1.368A5.27,5.27,0,0,0,31.8,336.3c-3.086,3.261-7.22,3.3-10.248.029a4.526,4.526,0,0,0-6.914,0c-3,3.261-7.191,3.275-10.175.029A5.113,5.113,0,0,0,1,334.738Z" transform="translate(-0.971 -284.379)" fill="#cb8f55"/>
  <path id="Caminho_549" data-name="Caminho 549" d="M69.416,388.368v1.994c-1.761.044-2.926,1.121-4.12,2.271a6.416,6.416,0,0,1-9.243-.393,5.073,5.073,0,0,0-2.635-1.718,4.536,4.536,0,0,0-4.644,1.543,6.386,6.386,0,0,1-7.642,1.761,8.6,8.6,0,0,1-2.416-1.8,4.6,4.6,0,0,0-7.031.015,6.534,6.534,0,0,1-10.131-.029,4.534,4.534,0,0,0-6.958,0,6.533,6.533,0,0,1-10.131.029C3.489,391,2.936,390.711,1,390.318V388.4a6.347,6.347,0,0,1,4.818,2.169,4.991,4.991,0,0,0,2.577,1.674,4.482,4.482,0,0,0,4.6-1.47,6.693,6.693,0,0,1,4.018-2.3,6.44,6.44,0,0,1,6.07,2.227A4.725,4.725,0,0,0,25.5,392.24a4.482,4.482,0,0,0,4.658-1.5,6.48,6.48,0,0,1,6.128-2.271,6.7,6.7,0,0,1,4.061,2.358,4.51,4.51,0,0,0,6.114.684,7.05,7.05,0,0,0,.9-.844,6.533,6.533,0,0,1,9.986.029,4.553,4.553,0,0,0,7.162-.044A6.523,6.523,0,0,1,69.416,388.368Z" transform="translate(-0.971 -331.939)" fill="#cb8f55"/>
</svg>
