<svg id="usb" xmlns="http://www.w3.org/2000/svg" width="47.406" height="79.286" viewBox="0 0 47.406 79.286">
  <path id="Caminho_550" data-name="Caminho 550" d="M23.27,61.928c0-1.517-.033-2.984.016-4.452.016-.538-.342-.6-.685-.734Q15.068,53.733,7.55,50.724c-1.076-.44-1.223-.636-1.223-1.81V42.652A6.942,6.942,0,0,1,1.385,38.9a6.649,6.649,0,0,1-.457-4.68,6.772,6.772,0,1,1,7.665,8.431c0,1.924,0,3.865.016,5.822,0,.13.2.31.342.375,4.68,1.892,9.377,3.751,14.057,5.626a.522.522,0,0,0,.212-.016V4.655c-2.8,2.821-5.594,5.626-8.4,8.48-.62-.652-1.093-1.174-1.614-1.729.082-.1.212-.277.359-.424,3.245-3.245,6.49-6.507,9.752-9.752.815-.815,1.337-.848,2.087-.1q5.039,5.015,10.046,10.029a2.047,2.047,0,0,1,.212.277c-.538.489-1.06.946-1.6,1.419-2.707-2.707-5.5-5.512-8.447-8.464V43.207c.228-.065.457-.13.669-.212,4.4-1.761,8.822-3.539,13.242-5.284a.968.968,0,0,0,.734-1.06c-.049-1.712-.016-3.408-.016-5.235H36.284c-1.37,0-1.712-.342-1.712-1.68V19.463c0-1.256.342-1.6,1.6-1.6H46.525c1.288,0,1.582.31,1.582,1.582V29.883c0,1.142-.359,1.517-1.5,1.517-1.321.016-2.658,0-4.11,0v6.05c0,1.354-.1,1.5-1.337,1.99-4.909,1.957-9.817,3.93-14.742,5.871a1.151,1.151,0,0,0-.881,1.272c.033,4.811.016,9.621.016,14.432v.864a9.1,9.1,0,0,1,6.588,4.338A8.665,8.665,0,0,1,33.3,72.332a8.973,8.973,0,0,1-9.556,7.534,9.015,9.015,0,0,1-.473-17.938Zm1.109,15.737a6.768,6.768,0,1,0-6.735-6.751A6.73,6.73,0,0,0,24.379,77.665ZM36.887,20.18V29.1h8.888V20.18ZM2.967,35.8A4.511,4.511,0,1,0,7.6,31.449,4.447,4.447,0,0,0,2.967,35.8Z" transform="translate(-0.701 -0.594)" fill="#cb8f55"/>
</svg>
