<svg id="wheelchair" xmlns="http://www.w3.org/2000/svg" width="65.707" height="64.926" viewBox="0 0 65.707 64.926">
  <path id="Caminho_551" data-name="Caminho 551" d="M0,.92C4.146.92,8.272.9,12.418.9A2.113,2.113,0,0,1,14.8,2.953c.743,4.654,1.486,9.328,2.21,13.982.411,2.581.8,5.143,1.212,7.724a6.276,6.276,0,0,0,.2.684H47.09c1.877,0,2.464.528,2.777,2.386Q51.656,38.408,53.446,49.1c.059.313.137.626.254,1.076H65.707v4.107H58.256c.293.469.489.763.665,1.076a6.639,6.639,0,0,1-.372,7.47,6.542,6.542,0,0,1-6.805,2.855,6.944,6.944,0,0,1-2.581-12.77.949.949,0,0,0,.508-1.173c-.235-1.212-.43-2.425-.626-3.637H38.407c-.02.176-.059.254-.059.352A18.768,18.768,0,1,1,13.239,29.471c1.408-.489,1.408-.489,1.232-1.995-.02-.156-.059-.313-.078-.489-.7-4.361-1.388-8.722-2.092-13.1-.469-2.914-.939-5.828-1.428-8.859H0Zm19.693,31.6a14.589,14.589,0,1,0,14.53,14.647A14.568,14.568,0,0,0,19.693,32.521Zm26.244-2.992H26.654c.02.078,0,.117.02.137a2.944,2.944,0,0,0,.332.2A18.525,18.525,0,0,1,37.958,43.218c.137.587.43.684.958.684,2.894-.02,5.788,0,8.683-.02.215,0,.43-.059.724-.078C47.52,39.014,46.738,34.321,45.936,29.529Zm6.923,26.5a2.767,2.767,0,0,0-2.8,2.777A2.822,2.822,0,0,0,52.82,61.64a2.888,2.888,0,0,0,2.875-2.855A2.835,2.835,0,0,0,52.859,56.027Z" transform="translate(0 -0.9)" fill="#cb8f55"/>
</svg>
