<svg xmlns="http://www.w3.org/2000/svg" xmlns:xlink="http://www.w3.org/1999/xlink" width="151" height="684" viewBox="0 0 151 684">
  <defs>
    <clipPath id="clip-path">
      <rect width="151" height="684" fill="none"/>
    </clipPath>
  </defs>
  <g id="Repetição_de_grade_2" data-name="Repetição de grade 2" clip-path="url(#clip-path)">
    <g transform="translate(-1780 -4797.5)">
      <line id="Linha_6" data-name="Linha 6" x2="151" transform="translate(1780 4798)" fill="none" stroke="#cc8f57" stroke-width="1"/>
    </g>
    <g transform="translate(-1780 -4776.5)">
      <line id="Linha_6-2" data-name="Linha 6" x2="151" transform="translate(1780 4798)" fill="none" stroke="#cc8f57" stroke-width="1"/>
    </g>
    <g transform="translate(-1780 -4755.5)">
      <line id="Linha_6-3" data-name="Linha 6" x2="151" transform="translate(1780 4798)" fill="none" stroke="#cc8f57" stroke-width="1"/>
    </g>
    <g transform="translate(-1780 -4734.5)">
      <line id="Linha_6-4" data-name="Linha 6" x2="151" transform="translate(1780 4798)" fill="none" stroke="#cc8f57" stroke-width="1"/>
    </g>
    <g transform="translate(-1780 -4713.5)">
      <line id="Linha_6-5" data-name="Linha 6" x2="151" transform="translate(1780 4798)" fill="none" stroke="#cc8f57" stroke-width="1"/>
    </g>
    <g transform="translate(-1780 -4692.5)">
      <line id="Linha_6-6" data-name="Linha 6" x2="151" transform="translate(1780 4798)" fill="none" stroke="#cc8f57" stroke-width="1"/>
    </g>
    <g transform="translate(-1780 -4671.5)">
      <line id="Linha_6-7" data-name="Linha 6" x2="151" transform="translate(1780 4798)" fill="none" stroke="#cc8f57" stroke-width="1"/>
    </g>
    <g transform="translate(-1780 -4650.5)">
      <line id="Linha_6-8" data-name="Linha 6" x2="151" transform="translate(1780 4798)" fill="none" stroke="#cc8f57" stroke-width="1"/>
    </g>
    <g transform="translate(-1780 -4629.5)">
      <line id="Linha_6-9" data-name="Linha 6" x2="151" transform="translate(1780 4798)" fill="none" stroke="#cc8f57" stroke-width="1"/>
    </g>
    <g transform="translate(-1780 -4608.5)">
      <line id="Linha_6-10" data-name="Linha 6" x2="151" transform="translate(1780 4798)" fill="none" stroke="#cc8f57" stroke-width="1"/>
    </g>
    <g transform="translate(-1780 -4587.5)">
      <line id="Linha_6-11" data-name="Linha 6" x2="151" transform="translate(1780 4798)" fill="none" stroke="#cc8f57" stroke-width="1"/>
    </g>
    <g transform="translate(-1780 -4566.5)">
      <line id="Linha_6-12" data-name="Linha 6" x2="151" transform="translate(1780 4798)" fill="none" stroke="#cc8f57" stroke-width="1"/>
    </g>
    <g transform="translate(-1780 -4545.5)">
      <line id="Linha_6-13" data-name="Linha 6" x2="151" transform="translate(1780 4798)" fill="none" stroke="#cc8f57" stroke-width="1"/>
    </g>
    <g transform="translate(-1780 -4524.5)">
      <line id="Linha_6-14" data-name="Linha 6" x2="151" transform="translate(1780 4798)" fill="none" stroke="#cc8f57" stroke-width="1"/>
    </g>
    <g transform="translate(-1780 -4503.5)">
      <line id="Linha_6-15" data-name="Linha 6" x2="151" transform="translate(1780 4798)" fill="none" stroke="#cc8f57" stroke-width="1"/>
    </g>
    <g transform="translate(-1780 -4482.5)">
      <line id="Linha_6-16" data-name="Linha 6" x2="151" transform="translate(1780 4798)" fill="none" stroke="#cc8f57" stroke-width="1"/>
    </g>
    <g transform="translate(-1780 -4461.5)">
      <line id="Linha_6-17" data-name="Linha 6" x2="151" transform="translate(1780 4798)" fill="none" stroke="#cc8f57" stroke-width="1"/>
    </g>
    <g transform="translate(-1780 -4440.5)">
      <line id="Linha_6-18" data-name="Linha 6" x2="151" transform="translate(1780 4798)" fill="none" stroke="#cc8f57" stroke-width="1"/>
    </g>
    <g transform="translate(-1780 -4419.5)">
      <line id="Linha_6-19" data-name="Linha 6" x2="151" transform="translate(1780 4798)" fill="none" stroke="#cc8f57" stroke-width="1"/>
    </g>
    <g transform="translate(-1780 -4398.5)">
      <line id="Linha_6-20" data-name="Linha 6" x2="151" transform="translate(1780 4798)" fill="none" stroke="#cc8f57" stroke-width="1"/>
    </g>
    <g transform="translate(-1780 -4377.5)">
      <line id="Linha_6-21" data-name="Linha 6" x2="151" transform="translate(1780 4798)" fill="none" stroke="#cc8f57" stroke-width="1"/>
    </g>
    <g transform="translate(-1780 -4356.5)">
      <line id="Linha_6-22" data-name="Linha 6" x2="151" transform="translate(1780 4798)" fill="none" stroke="#cc8f57" stroke-width="1"/>
    </g>
    <g transform="translate(-1780 -4335.5)">
      <line id="Linha_6-23" data-name="Linha 6" x2="151" transform="translate(1780 4798)" fill="none" stroke="#cc8f57" stroke-width="1"/>
    </g>
    <g transform="translate(-1780 -4314.5)">
      <line id="Linha_6-24" data-name="Linha 6" x2="151" transform="translate(1780 4798)" fill="none" stroke="#cc8f57" stroke-width="1"/>
    </g>
    <g transform="translate(-1780 -4293.5)">
      <line id="Linha_6-25" data-name="Linha 6" x2="151" transform="translate(1780 4798)" fill="none" stroke="#cc8f57" stroke-width="1"/>
    </g>
    <g transform="translate(-1780 -4272.5)">
      <line id="Linha_6-26" data-name="Linha 6" x2="151" transform="translate(1780 4798)" fill="none" stroke="#cc8f57" stroke-width="1"/>
    </g>
    <g transform="translate(-1780 -4251.5)">
      <line id="Linha_6-27" data-name="Linha 6" x2="151" transform="translate(1780 4798)" fill="none" stroke="#cc8f57" stroke-width="1"/>
    </g>
    <g transform="translate(-1780 -4230.5)">
      <line id="Linha_6-28" data-name="Linha 6" x2="151" transform="translate(1780 4798)" fill="none" stroke="#cc8f57" stroke-width="1"/>
    </g>
    <g transform="translate(-1780 -4209.5)">
      <line id="Linha_6-29" data-name="Linha 6" x2="151" transform="translate(1780 4798)" fill="none" stroke="#cc8f57" stroke-width="1"/>
    </g>
    <g transform="translate(-1780 -4188.5)">
      <line id="Linha_6-30" data-name="Linha 6" x2="151" transform="translate(1780 4798)" fill="none" stroke="#cc8f57" stroke-width="1"/>
    </g>
    <g transform="translate(-1780 -4167.5)">
      <line id="Linha_6-31" data-name="Linha 6" x2="151" transform="translate(1780 4798)" fill="none" stroke="#cc8f57" stroke-width="1"/>
    </g>
    <g transform="translate(-1780 -4146.5)">
      <line id="Linha_6-32" data-name="Linha 6" x2="151" transform="translate(1780 4798)" fill="none" stroke="#cc8f57" stroke-width="1"/>
    </g>
    <g transform="translate(-1780 -4125.5)">
      <line id="Linha_6-33" data-name="Linha 6" x2="151" transform="translate(1780 4798)" fill="none" stroke="#cc8f57" stroke-width="1"/>
    </g>
  </g>
</svg>
