<svg xmlns="http://www.w3.org/2000/svg" width="301.692" height="38.198" viewBox="0 0 301.692 38.198">
  <g id="Grupo_245" data-name="Grupo 245" transform="translate(0.285 0.261)">
    <path id="Caminho_1535" data-name="Caminho 1535" d="M907.648,257.482a18.046,18.046,0,0,1,13.358,5.343.388.388,0,0,1,.12.294.374.374,0,0,1-.414.414.387.387,0,0,1-.294-.12,17.872,17.872,0,1,0,0,25.446.387.387,0,0,1,.294-.12.374.374,0,0,1,.414.414.387.387,0,0,1-.12.294,18.807,18.807,0,1,1-13.357-31.924Z" transform="translate(-888.719 -257.472)" fill="#fff" stroke="#fff" stroke-miterlimit="10" stroke-width="0.52"/>
    <path id="Caminho_1536" data-name="Caminho 1536" d="M941.747,257.481a18.594,18.594,0,0,1,13.5,5.45,18.313,18.313,0,0,1,0,26.327,18.593,18.593,0,0,1-13.5,5.45,17.872,17.872,0,0,1-9.35-2.5,17.619,17.619,0,0,1-6.478-6.772,20.144,20.144,0,0,1,0-18.7,17.5,17.5,0,0,1,6.478-6.759,17.765,17.765,0,0,1,9.35-2.5Zm0,.748a16.483,16.483,0,0,0-12.462,5.169,18.821,18.821,0,0,0,0,25.379,16.483,16.483,0,0,0,12.462,5.169,17.938,17.938,0,0,0,12.983-5.223,17.632,17.632,0,0,0,0-25.285,17.939,17.939,0,0,0-12.983-5.263Z" transform="translate(-877.002 -257.471)" fill="#fff" stroke="#fff" stroke-miterlimit="10" stroke-width="0.52"/>
    <path id="Caminho_1537" data-name="Caminho 1537" d="M988.418,257.481c.281,0,.414.134.414.4v36.425c0,.267-.133.4-.414.4a.388.388,0,0,1-.347-.174l-25.379-35.424v35.2a.347.347,0,0,1-.387.4c-.254,0-.374-.134-.374-.4V257.882a.361.361,0,0,1,.4-.4.334.334,0,0,1,.294.174L988,293.078v-35.2a.361.361,0,0,1,.414-.4Z" transform="translate(-864.139 -257.471)" fill="#fff" stroke="#fff" stroke-miterlimit="10" stroke-width="0.52"/>
    <path id="Caminho_1538" data-name="Caminho 1538" d="M1011.6,257.482a18.046,18.046,0,0,1,13.357,5.343.387.387,0,0,1,.12.294.361.361,0,0,1-.4.414.374.374,0,0,1-.294-.12,17.872,17.872,0,1,0,0,25.446.374.374,0,0,1,.294-.12.361.361,0,0,1,.4.414.387.387,0,0,1-.12.294,18.807,18.807,0,1,1-13.358-31.924Z" transform="translate(-853.819 -257.472)" fill="#fff" stroke="#fff" stroke-miterlimit="10" stroke-width="0.52"/>
    <path id="Caminho_1539" data-name="Caminho 1539" d="M1029.1,257.48h26.033c.267,0,.414.12.414.374s-.147.374-.414.374H1029.1c-.267,0-.4-.12-.4-.374S1028.771,257.48,1029.1,257.48Zm0,18.206h23.4a.361.361,0,0,1,.415.414c0,.267-.134.4-.415.4h-23.4a.361.361,0,0,1-.4-.4c-.067-.281.067-.414.4-.414Zm0,18.273h26.033c.267,0,.414.12.414.374s-.147.374-.414.374H1029.1c-.267,0-.4-.12-.4-.374S1028.771,293.959,1029.1,293.959Z" transform="translate(-841.726 -257.47)" fill="#fff" stroke="#fff" stroke-miterlimit="10" stroke-width="0.52"/>
    <path id="Caminho_1540" data-name="Caminho 1540" d="M1061.337,257.482h13.037a17.686,17.686,0,0,1,8.629,1.924,9.35,9.35,0,0,1,0,16.4,17.246,17.246,0,0,1-8.629,1.977H1061.7v16.523c0,.267-.12.4-.374.4s-.374-.134-.374-.4V277.385q0-.361.4-.361h13.023a16.551,16.551,0,0,0,8.282-1.924,8.682,8.682,0,0,0,0-15,16.978,16.978,0,0,0-8.282-1.87h-13.023c-.267,0-.4-.12-.4-.374S1061.017,257.482,1061.337,257.482Z" transform="translate(-830.894 -257.473)" fill="#fff" stroke="#fff" stroke-miterlimit="10" stroke-width="0.52"/>
    <path id="Caminho_1541" data-name="Caminho 1541" d="M1090.582,257.481h31.23a.361.361,0,0,1,.374.2.453.453,0,0,1,0,.374c0,.12-.187.174-.374.174h-15.241v36.065c0,.187,0,.321-.174.374a.4.4,0,0,1-.387,0,.361.361,0,0,1-.2-.374V258.176h-15.227a.361.361,0,0,1-.347-.174.321.321,0,0,1,0-.374.361.361,0,0,1,.348-.147Z" transform="translate(-821.082 -257.471)" fill="#fff" stroke="#fff" stroke-miterlimit="10" stroke-width="0.52"/>
  </g>
</svg>
