<svg xmlns="http://www.w3.org/2000/svg" width="301.692" height="71.729" viewBox="0 0 301.692 71.729">
  <g id="Grupo_255" data-name="Grupo 255" transform="translate(-1164.914 -480.69)">
    <g id="Grupo_245" data-name="Grupo 245" transform="translate(1165.199 514.482)">
      <path id="Caminho_1535" data-name="Caminho 1535" d="M907.648,257.482a18.046,18.046,0,0,1,13.358,5.343.388.388,0,0,1,.12.294.374.374,0,0,1-.414.414.387.387,0,0,1-.294-.12,17.872,17.872,0,1,0,0,25.446.387.387,0,0,1,.294-.12.374.374,0,0,1,.414.414.387.387,0,0,1-.12.294,18.807,18.807,0,1,1-13.357-31.924Z" transform="translate(-888.719 -257.472)" fill="#fff" stroke="#fff" stroke-miterlimit="10" stroke-width="0.52"/>
      <path id="Caminho_1536" data-name="Caminho 1536" d="M941.747,257.481a18.594,18.594,0,0,1,13.5,5.45,18.313,18.313,0,0,1,0,26.327,18.593,18.593,0,0,1-13.5,5.45,17.872,17.872,0,0,1-9.35-2.5,17.619,17.619,0,0,1-6.478-6.772,20.144,20.144,0,0,1,0-18.7,17.5,17.5,0,0,1,6.478-6.759,17.765,17.765,0,0,1,9.35-2.5Zm0,.748a16.483,16.483,0,0,0-12.462,5.169,18.821,18.821,0,0,0,0,25.379,16.483,16.483,0,0,0,12.462,5.169,17.938,17.938,0,0,0,12.983-5.223,17.632,17.632,0,0,0,0-25.285,17.939,17.939,0,0,0-12.983-5.263Z" transform="translate(-877.002 -257.471)" fill="#fff" stroke="#fff" stroke-miterlimit="10" stroke-width="0.52"/>
      <path id="Caminho_1537" data-name="Caminho 1537" d="M988.418,257.481c.281,0,.414.134.414.4v36.425c0,.267-.133.4-.414.4a.388.388,0,0,1-.347-.174l-25.379-35.424v35.2a.347.347,0,0,1-.387.4c-.254,0-.374-.134-.374-.4V257.882a.361.361,0,0,1,.4-.4.334.334,0,0,1,.294.174L988,293.078v-35.2a.361.361,0,0,1,.414-.4Z" transform="translate(-864.139 -257.471)" fill="#fff" stroke="#fff" stroke-miterlimit="10" stroke-width="0.52"/>
      <path id="Caminho_1538" data-name="Caminho 1538" d="M1011.6,257.482a18.046,18.046,0,0,1,13.357,5.343.387.387,0,0,1,.12.294.361.361,0,0,1-.4.414.374.374,0,0,1-.294-.12,17.872,17.872,0,1,0,0,25.446.374.374,0,0,1,.294-.12.361.361,0,0,1,.4.414.387.387,0,0,1-.12.294,18.807,18.807,0,1,1-13.358-31.924Z" transform="translate(-853.819 -257.472)" fill="#fff" stroke="#fff" stroke-miterlimit="10" stroke-width="0.52"/>
      <path id="Caminho_1539" data-name="Caminho 1539" d="M1029.1,257.48h26.033c.267,0,.414.12.414.374s-.147.374-.414.374H1029.1c-.267,0-.4-.12-.4-.374S1028.771,257.48,1029.1,257.48Zm0,18.206h23.4a.361.361,0,0,1,.415.414c0,.267-.134.4-.415.4h-23.4a.361.361,0,0,1-.4-.4c-.067-.281.067-.414.4-.414Zm0,18.273h26.033c.267,0,.414.12.414.374s-.147.374-.414.374H1029.1c-.267,0-.4-.12-.4-.374S1028.771,293.959,1029.1,293.959Z" transform="translate(-841.726 -257.47)" fill="#fff" stroke="#fff" stroke-miterlimit="10" stroke-width="0.52"/>
      <path id="Caminho_1540" data-name="Caminho 1540" d="M1061.337,257.482h13.037a17.686,17.686,0,0,1,8.629,1.924,9.35,9.35,0,0,1,0,16.4,17.246,17.246,0,0,1-8.629,1.977H1061.7v16.523c0,.267-.12.4-.374.4s-.374-.134-.374-.4V277.385q0-.361.4-.361h13.023a16.551,16.551,0,0,0,8.282-1.924,8.682,8.682,0,0,0,0-15,16.978,16.978,0,0,0-8.282-1.87h-13.023c-.267,0-.4-.12-.4-.374S1061.017,257.482,1061.337,257.482Z" transform="translate(-830.894 -257.473)" fill="#fff" stroke="#fff" stroke-miterlimit="10" stroke-width="0.52"/>
      <path id="Caminho_1541" data-name="Caminho 1541" d="M1090.582,257.481h31.23a.361.361,0,0,1,.374.2.453.453,0,0,1,0,.374c0,.12-.187.174-.374.174h-15.241v36.065c0,.187,0,.321-.174.374a.4.4,0,0,1-.387,0,.361.361,0,0,1-.2-.374V258.176h-15.227a.361.361,0,0,1-.347-.174.321.321,0,0,1,0-.374.361.361,0,0,1,.348-.147Z" transform="translate(-821.082 -257.471)" fill="#fff" stroke="#fff" stroke-miterlimit="10" stroke-width="0.52"/>
    </g>
    <g id="Grupo_247" data-name="Grupo 247" transform="translate(1220.967 480.946)">
      <path id="Caminho_1542" data-name="Caminho 1542" d="M1008.544,237h2.738a4.621,4.621,0,0,1,1.9.321,1.629,1.629,0,0,1,1,1.6,1.763,1.763,0,0,1-1,1.67,2.777,2.777,0,0,1-.815.267,3.418,3.418,0,0,1,1.042.321,2.177,2.177,0,0,1,0,3.767,3.859,3.859,0,0,1-1.937.414h-2.925a.083.083,0,0,1-.08-.094.067.067,0,0,1,.08-.08h2.925a4.007,4.007,0,0,0,1.87-.374,2.071,2.071,0,0,0,0-3.5,4.355,4.355,0,0,0-1.883-.347h-2.925a.067.067,0,0,1-.08-.08c0-.067,0-.094.08-.094h2.738a4.154,4.154,0,0,0,1.817-.347,1.616,1.616,0,0,0,.935-1.523,1.483,1.483,0,0,0-.922-1.456,4.569,4.569,0,0,0-1.83-.307h-2.738a.08.08,0,1,1,0-.16Z" transform="translate(-904.289 -230.812)" fill="#fff" stroke="#fff" stroke-miterlimit="10" stroke-width="0.5"/>
      <path id="Caminho_1543" data-name="Caminho 1543" d="M1022.116,237s.094,0,.094.08h0l-3.5,4.461v3.673h0a.067.067,0,0,1-.08.08c-.067,0-.094,0-.094-.08h0v-3.673l-3.486-4.461a.083.083,0,0,1,.094-.08h0l3.446,4.381,3.433-4.381a.08.08,0,0,1,.093,0Z" transform="translate(-902.073 -230.814)" fill="#fff" stroke="#fff" stroke-miterlimit="10" stroke-width="0.5"/>
      <path id="Caminho_1544" data-name="Caminho 1544" d="M1034.124,236.8a4.194,4.194,0,0,1,3.032,1.229,4.127,4.127,0,0,1,.815,4.822,4.235,4.235,0,0,1-1.216,1.443l1.523,1.336a.108.108,0,0,1,0,.067c0,.067,0,.094-.08.094h-.067l-1.55-1.336a4.339,4.339,0,0,1-2.484.775,4.006,4.006,0,0,1-2.11-.561,4.071,4.071,0,0,1-1.456-1.523,4.314,4.314,0,0,1-.521-2.1,4.368,4.368,0,0,1,.521-2.11,4.007,4.007,0,0,1,3.567-2.084Zm0,.174a3.7,3.7,0,0,0-2.805,1.162,4.221,4.221,0,0,0,0,5.7,3.7,3.7,0,0,0,2.805,1.162,4.008,4.008,0,0,0,2.337-.721l-2.391-2.057v-.067c0-.067,0-.094.08-.094h0l2.431,2.084a3.74,3.74,0,0,0,1.189-1.336,3.927,3.927,0,0,0-.761-4.635,4.007,4.007,0,0,0-2.885-1.2Z" transform="translate(-897.051 -230.878)" fill="#fff" stroke="#fff" stroke-miterlimit="10" stroke-width="0.5"/>
      <path id="Caminho_1545" data-name="Caminho 1545" d="M1038.47,237v5.089a3.1,3.1,0,1,0,6.2,0V237.08a.083.083,0,0,1,.094-.08c.093,0,.093,0,.093.08v5.009a3.273,3.273,0,0,1-5.6,2.311,3.179,3.179,0,0,1-.948-2.311V237.08A.342.342,0,0,1,1038.47,237Z" transform="translate(-894.264 -230.811)" fill="#fff" stroke="#fff" stroke-miterlimit="10" stroke-width="0.5"/>
      <path id="Caminho_1546" data-name="Caminho 1546" d="M1048.889,237a.12.12,0,0,1,.093,0l3.5,8.2h0a.08.08,0,0,1-.093.094.067.067,0,0,1-.08,0l-3.433-8.014-3.433,8.014c-.067,0-.093,0-.093-.094h0l3.5-8.2a.081.081,0,0,1,.04,0Z" transform="translate(-891.9 -230.813)" fill="#fff" stroke="#fff" stroke-miterlimit="10" stroke-width="0.5"/>
      <path id="Caminho_1547" data-name="Caminho 1547" d="M1053.184,237h1.175a5.062,5.062,0,0,1,3.713,1.189,4.755,4.755,0,0,1,0,5.971,5.063,5.063,0,0,1-3.714,1.2h-1.175a.08.08,0,0,1-.093-.093.083.083,0,0,1,.093-.08h1.175a4.862,4.862,0,0,0,3.58-1.149,4.582,4.582,0,0,0,0-5.717,4.809,4.809,0,0,0-3.58-1.162h-1.175s-.094,0-.094-.08S1053.13,237,1053.184,237Z" transform="translate(-889.302 -230.815)" fill="#fff" stroke="#fff" stroke-miterlimit="10" stroke-width="0.5"/>
      <path id="Caminho_1548" data-name="Caminho 1548" d="M1060.36,237h2.925a3.913,3.913,0,0,1,1.937.427,1.95,1.95,0,0,1,1.082,1.843,1.977,1.977,0,0,1-1.082,1.843,3.71,3.71,0,0,1-1.336.387l2.925,3.713h0c0,.067,0,.093-.08.093a.08.08,0,0,1-.08,0l-2.979-3.794a2.671,2.671,0,0,1-.454,0h-2.845v3.713c0,.067,0,.094-.093.094s-.08,0-.08-.094v-3.807a.083.083,0,0,1,.094-.08h2.925a1.729,1.729,0,0,0,.32,0l-3.326-4.221h0S1060.294,237,1060.36,237Zm.174.16,3.286,4.181a3.286,3.286,0,0,0,1.336-.387,1.937,1.937,0,0,0,0-3.366,3.78,3.78,0,0,0-1.856-.427Z" transform="translate(-886.915 -230.811)" fill="#fff" stroke="#fff" stroke-miterlimit="10" stroke-width="0.5"/>
      <path id="Caminho_1549" data-name="Caminho 1549" d="M1070.906,237.005a.107.107,0,0,1,.094,0l3.5,8.2h0c0,.067,0,.094-.094.094a.066.066,0,0,1-.08,0l-3.433-8.014-3.42,8.014a.093.093,0,0,1-.08,0,.091.091,0,0,1-.093-.093h0l3.5-8.2a.08.08,0,0,1,.107,0Z" transform="translate(-884.531 -230.816)" fill="#fff" stroke="#fff" stroke-miterlimit="10" stroke-width="0.5"/>
      <g id="Grupo_246" data-name="Grupo 246" transform="translate(0)">
        <path id="Caminho_1550" data-name="Caminho 1550" d="M930.577,236.67s.08,0,.08.107v9h6.411a.094.094,0,0,1,.107.094c0,.067,0,.093-.107.093h-6.492c-.08,0-.107,0-.107-.093v-9.1C930.47,236.71,930.5,236.67,930.577,236.67Z" transform="translate(-930.47 -230.921)" fill="#fff" stroke="#fff" stroke-miterlimit="10" stroke-width="0.5"/>
        <path id="Caminho_1551" data-name="Caminho 1551" d="M937.863,236.67a.1.1,0,0,1,.094.107v5.57a3.446,3.446,0,1,0,6.879,0v-5.57a.094.094,0,0,1,.107-.107c.067,0,.094,0,.094.107v5.57a3.486,3.486,0,0,1-1.055,2.565,3.673,3.673,0,0,1-5.156,0,3.487,3.487,0,0,1-1.055-2.565v-5.57C937.77,236.71,937.8,236.67,937.863,236.67Z" transform="translate(-928.019 -230.922)" fill="#fff" stroke="#fff" stroke-miterlimit="10" stroke-width="0.5"/>
        <path id="Caminho_1552" data-name="Caminho 1552" d="M946.261,236.682l3.5,4.448,3.5-4.448a.067.067,0,0,1,.067,0h0a.092.092,0,0,1,.094.094v.067l-3.473,4.488,3.526,4.488h0c0,.067,0,.107-.093.107a.067.067,0,0,1-.08,0l-3.5-4.435-3.5,4.435c-.08,0-.107,0-.107-.107l3.54-4.488-3.54-4.488a.122.122,0,0,1,0-.067C946.154,236.709,946.181,236.682,946.261,236.682Z" transform="translate(-925.197 -230.92)" fill="#fff" stroke="#fff" stroke-miterlimit="10" stroke-width="0.5"/>
        <path id="Caminho_1553" data-name="Caminho 1553" d="M959.027,236.763h1.255a5.53,5.53,0,0,1,4.007,1.336,5.169,5.169,0,0,1,0,6.465,5.53,5.53,0,0,1-4.007,1.336h-1.255s-.107,0-.107-.094a.093.093,0,0,1,.107-.094h1.255a5.343,5.343,0,0,0,3.887-1.242,4.989,4.989,0,0,0,0-6.171,5.249,5.249,0,0,0-3.887-1.256h-1.255s-.107,0-.107-.094S958.947,236.763,959.027,236.763Z" transform="translate(-920.918 -230.895)" fill="#fff" stroke="#fff" stroke-miterlimit="10" stroke-width="0.5"/>
        <path id="Caminho_1554" data-name="Caminho 1554" d="M966.747,236.76h6.318s.094,0,.094.08,0,.094-.094.094h-6.318c-.067,0-.107,0-.107-.094S966.68,236.76,966.747,236.76Zm0,4.408h5.717a.1.1,0,0,1,.094.107c0,.107,0,.094-.094.094h-5.677c-.067,0-.107,0-.107-.094A.093.093,0,0,1,966.747,241.168Zm0,4.435h6.318a.08.08,0,0,1,.094.094c0,.067,0,.093-.094.093h-6.318c-.067,0-.107,0-.107-.094a.093.093,0,0,1,.107-.094Z" transform="translate(-918.326 -230.891)" fill="#fff" stroke="#fff" stroke-miterlimit="10" stroke-width="0.5"/>
        <path id="Caminho_1555" data-name="Caminho 1555" d="M978.264,236.76a6.279,6.279,0,0,1,2.084.307,4.009,4.009,0,0,1,1.469.868.107.107,0,0,1,0,.067.068.068,0,0,1-.018.062.067.067,0,0,1-.062.018h-.08a3.727,3.727,0,0,0-1.336-.8,5.918,5.918,0,0,0-2.017-.321,4.862,4.862,0,0,0-2.832.761,2.311,2.311,0,0,0-.721.721,1.469,1.469,0,0,0-.241.788,1.12,1.12,0,0,0,.294.775,2.176,2.176,0,0,0,.815.561,15.432,15.432,0,0,0,2.591.641,15.141,15.141,0,0,1,2.672.681,2.314,2.314,0,0,1,.895.588,1.255,1.255,0,0,1,.361.895,2.071,2.071,0,0,1-1.229,1.8,5.343,5.343,0,0,1-2.671.641,6.679,6.679,0,0,1-4.007-1.2v-.067c0-.067,0-.107.094-.107h.067a6.319,6.319,0,0,0,3.927,1.175,5.01,5.01,0,0,0,2.551-.614,1.924,1.924,0,0,0,1.149-1.643,1.135,1.135,0,0,0-.307-.775,2.22,2.22,0,0,0-.828-.534,14.107,14.107,0,0,0-2.591-.655,13.526,13.526,0,0,1-2.672-.681,2.311,2.311,0,0,1-.895-.588,1.336,1.336,0,0,1-.348-.908,1.655,1.655,0,0,1,.267-.882,2.885,2.885,0,0,1,.775-.788,5.2,5.2,0,0,1,2.845-.788Z" transform="translate(-915.778 -230.892)" fill="#fff" stroke="#fff" stroke-miterlimit="10" stroke-width="0.5"/>
        <path id="Caminho_1556" data-name="Caminho 1556" d="M982.93,236.853c0-.067,0-.093.093-.093s.094,0,.094.093V245.7a.08.08,0,0,1-.093.094.092.092,0,0,1-.094-.094Z" transform="translate(-912.857 -230.891)" fill="#fff" stroke="#fff" stroke-miterlimit="10" stroke-width="0.5"/>
        <path id="Caminho_1557" data-name="Caminho 1557" d="M990.178,236.76a4.408,4.408,0,0,1,3.233,1.336.108.108,0,0,1,0,.067.094.094,0,0,1-.107.107h0a4.154,4.154,0,0,0-3.085-1.256,4.341,4.341,0,1,0,3.059,7.453v-3.019h-4.368c-.067,0-.094,0-.094-.094s0-.107.094-.107h4.421a.094.094,0,0,1,.107.107v3.152a.185.185,0,0,1,0,.08,4.408,4.408,0,0,1-3.232,1.336,4.515,4.515,0,1,1,0-9.03Z" transform="translate(-911.93 -230.891)" fill="#fff" stroke="#fff" stroke-miterlimit="10" stroke-width="0.5"/>
        <path id="Caminho_1558" data-name="Caminho 1558" d="M1000.752,236.76c.067,0,.107,0,.107.093V245.7c0,.067,0,.094-.107.094a.08.08,0,0,1-.08,0l-6.144-8.6v8.549a.08.08,0,0,1-.094.094.092.092,0,0,1-.094-.094v-8.843c0-.067,0-.094.094-.094h.08l6.144,8.589v-8.535C1000.658,236.787,1000.685,236.76,1000.752,236.76Z" transform="translate(-909.026 -230.891)" fill="#fff" stroke="#fff" stroke-miterlimit="10" stroke-width="0.5"/>
        <path id="Caminho_1559" data-name="Caminho 1559" d="M958.931,232.545c.12-.147.214-.214.267-.16s0,.12-.12.281l-16.029,20.33c-.12.16-.2.214-.254.174s0-.134.107-.294Z" transform="translate(-926.339 -232.366)" fill="#fff" stroke="#fff" stroke-miterlimit="10" stroke-width="0.5"/>
      </g>
    </g>
  </g>
</svg>
